<svg width="1365" height="768" viewBox="0 0 1365 768" fill="none" xmlns="http://www.w3.org/2000/svg">
  <defs>
    <linearGradient id="bg" x1="682.5" y1="0" x2="682.5" y2="768" gradientUnits="userSpaceOnUse">
      <stop stop-color="#16315D"/>
      <stop offset="0.42" stop-color="#0A1E42"/>
      <stop offset="1" stop-color="#040A18"/>
    </linearGradient>
    <radialGradient id="planet" cx="0" cy="0" r="1" gradientUnits="userSpaceOnUse" gradientTransform="translate(146 322) rotate(33.45) scale(406.55)">
      <stop stop-color="#7CC3FF"/>
      <stop offset="0.48" stop-color="#4679C6"/>
      <stop offset="1" stop-color="#1A2A4A"/>
    </radialGradient>
    <radialGradient id="nebula" cx="0" cy="0" r="1" gradientUnits="userSpaceOnUse" gradientTransform="translate(804 236) rotate(163.196) scale(627.181 302.734)">
      <stop stop-color="#6C9DF8" stop-opacity="0.72"/>
      <stop offset="0.56" stop-color="#3D60AE" stop-opacity="0.36"/>
      <stop offset="1" stop-color="#213B6E" stop-opacity="0"/>
    </radialGradient>
    <filter id="blur" x="-100" y="-100" width="1565" height="968" filterUnits="userSpaceOnUse" color-interpolation-filters="sRGB">
      <feGaussianBlur stdDeviation="6"/>
    </filter>
  </defs>

  <rect width="1365" height="768" fill="url(#bg)"/>
  <ellipse cx="804" cy="236" rx="627" ry="303" fill="url(#nebula)"/>

  <circle cx="146" cy="322" r="315" fill="url(#planet)"/>
  <circle cx="146" cy="322" r="336" stroke="#8FCEFF" stroke-opacity="0.5" stroke-width="16"/>

  <g fill="#EAF5FF" fill-opacity="0.85" filter="url(#blur)">
    <circle cx="820" cy="74" r="2.5"/><circle cx="670" cy="166" r="1.8"/><circle cx="559" cy="88" r="1.8"/><circle cx="484" cy="152" r="1.4"/>
    <circle cx="910" cy="128" r="1.8"/><circle cx="978" cy="188" r="1.8"/><circle cx="1020" cy="230" r="1.2"/><circle cx="1085" cy="120" r="1.5"/>
    <circle cx="1180" cy="212" r="2.1"/><circle cx="1245" cy="154" r="1.8"/><circle cx="1108" cy="292" r="1.6"/><circle cx="884" cy="308" r="1.3"/>
    <circle cx="732" cy="264" r="1.8"/><circle cx="640" cy="332" r="1.2"/><circle cx="964" cy="342" r="1.8"/><circle cx="1042" cy="374" r="1.6"/>
  </g>

  <g fill="#F6FBFF">
    <circle cx="782" cy="150" r="1.2"/><circle cx="692" cy="70" r="1"/><circle cx="930" cy="94" r="1.1"/><circle cx="1034" cy="156" r="0.9"/>
    <circle cx="1134" cy="192" r="1.1"/><circle cx="1192" cy="234" r="0.8"/><circle cx="990" cy="278" r="0.9"/><circle cx="878" cy="350" r="1"/>
    <circle cx="756" cy="296" r="0.9"/><circle cx="620" cy="254" r="0.8"/><circle cx="572" cy="214" r="1"/><circle cx="500" cy="190" r="0.8"/>
  </g>

  <g>
    <rect x="0" y="640" width="1365" height="128" fill="#02050D" fill-opacity="0.92"/>
    <rect x="0" y="580" width="1365" height="78" fill="#081429" fill-opacity="0.68"/>
    <path d="M1030 122C1120 110 1260 130 1365 220V595H1150L1094 559L1045 492L1016 420L996 340L986 230L1030 122Z" fill="#091225" fill-opacity="0.86"/>
  </g>
</svg>
